PathFileType	4	(X/Y/Z)	C:/Users/beibeiliu/ov580/test_trc\sequence.26_training_dense_right.trc
DataRate	CameraRate	NumFrames	NumMarkers	Units	OrigDataRate	OrigDataStartFrame	OrigNumFrames
120	120	18	19	mm	120	1	400
Frame#	Time	ThumbCMC			ThumbMCP			ThumbIP			ThumbTip			IndexMCP			IndexPIP			IndexTip			MiddleMCP			MiddlePIP			MiddleTip			RingMCP			RingPIP			RingTip			PinkyMCP			PinkyPIP			PinkyTip			BackHand1			BackHand2			BackHand3	
		X0	Y0	Z0	X1	Y1	Z1	X2	Y2	Z2	X3	Y3	Z3	X4	Y4	Z4	X5	Y5	Z5	X6	Y6	Z6	X7	Y7	Z7	X8	Y8	Z8	X9	Y9	Z9	X10	Y10	Z10	X11	Y11	Z11	X12	Y12	Z12	X13	Y13	Z13	X14	Y14	Z14	X15	Y15	Z15	X16	Y16	Z16	X17	Y17	Z17	X18	Y18	Z18	
0	0	206.901	7.34776	50.5497	191.373	13.8098	25.4086	189.495	21.4688	2.53723	186.912	26.849	-15.6172	221.454	12.9704	-15.6477	210.698	-15.0002	-20.3372	201.598	-21.9348	4.57988	238.069	-1.25782	-16.4693	220.207	-26.2084	-18.2228	214.885	-29.181	14.8175	251.371	-7.49975	-13.6101	234.515	-28.9841	-16.6465	225.394	-32.9564	10.8736	273.35	-3.65028	2.6096	281.97	-3.31943	-13.7148	291.426	-1.54809	-27.2993	257.169	10.4417	34.1995	253.072	9.47668	62.2561	232.471	21.5804	47.5951	
1	0.00833333	205.947	10.0095	45.8868	194.68	11.7515	26.4689	191.438	21.8727	1.47396	183.094	26.3089	-14.1463	220.255	12.2044	-14.9597	207.587	-14.9382	-20.5584	205.847	-21.2947	9.12993	233.923	0.584781	-15.3435	216.85	-27.5866	-12.8906	214.612	-25.0572	18.7989	247.544	-7.64754	-15.4832	237.916	-30.7532	-15.7093	224.772	-29.9029	12.3699	271.817	-3.93907	2.60614	281.917	-3.22218	-15.3146	287.957	0.240056	-32.6595	256.252	9.93685	33.7579	252.647	8.2593	61.1918	232.341	23.3445	44.5943	
2	0.0166667	203.852	8.67371	50.4882	195.896	13.0095	24.3544	190.376	22.1001	1.8751	187.145	27.0087	-14.7545	220.722	11.641	-14.9414	207.623	-12.1788	-21.6301	205.862	-22.2578	7.39896	231.876	-3.63218	-17.6469	216.252	-27.1949	-11.1085	216.113	-21.3501	21.5981	249.955	-9.26497	-13.8163	234.371	-28.1349	-14.7975	226.244	-29.1065	13.2994	272.915	-2.77842	1.79478	280.597	-4.71561	-13.2534	287.183	-0.636591	-28.7735	257.656	9.76483	32.9092	256.447	8.11609	59.023	234.64	22.5105	46.3898	
3	0.025	204.139	10.5144	48.1088	193.093	13.2895	26.4969	192.262	22.6984	0.844565	186.2	27.2311	-16.4653	219.585	13.6604	-13.7063	207.134	-14.9148	-18.0251	207.274	-22.0785	9.61625	236.417	-4.40949	-15.6286	219.227	-29.37	-7.93447	219.065	-21.5903	21.8602	248.507	-9.20347	-15.2236	232.11	-31.4066	-11.226	225.853	-27.0194	14.8631	272.816	-3.68024	3.3021	279.249	-4.86351	-11.2555	290.121	-1.58681	-31.5866	256.293	12.1833	33.5938	254.238	5.81949	61.5229	231.941	23.7872	43.0036	
4	0.0333333	203.834	11.8452	47.5154	194.658	13.1573	26.0978	191.54	22.0518	2.39253	187.806	26.6496	-17.0969	220.745	10.7247	-16.0763	207.801	-13.5062	-20.2271	207.935	-22.147	9.09184	233.81	0.433739	-13.7159	217.91	-27.8618	-6.9663	216.278	-21.4092	21.5116	249.459	-6.92129	-10.2286	230.291	-29.2999	-10.1271	225.895	-26.4584	17.5445	273.238	-5.45827	5.76178	281.497	-3.55409	-15.2293	289.508	-2.56456	-32.1432	256.211	10.6746	36.7475	257.671	6.62893	62.3442	236.211	20.6829	47.204	
5	0.0416667	205.08	10.9544	46.9232	197.088	12.0048	26.1097	192.529	18.3056	6.14532	188.5	24.4499	-13.6198	218.006	12.3745	-14.0643	211.746	-15.7039	-17.5044	203.41	-19.4261	12.7813	235.922	-1.07052	-12.9674	221.197	-28.5503	-9.11359	216.513	-22.0131	21.0325	247.615	-7.96588	-12.7503	234.317	-30.7152	-11.5304	225.294	-26.7731	13.9446	275.786	-5.06102	2.7979	278.919	-3.09351	-12.2139	291.782	-1.58699	-32.3369	260.497	8.63655	34.3647	255.656	7.11356	59.4956	236.831	21.4941	43.8882	
6	0.05	207.114	8.95514	48.1228	193.532	13.0768	27.5764	189.165	21.456	3.94745	184.838	24.5942	-13.7057	218.99	11.9838	-13.5851	206.525	-14.1998	-17.0353	208.647	-21.4533	11.5899	232.955	-0.12693	-13.8517	219.077	-26.9659	-8.849	217.829	-20.362	22.593	251.171	-9.56259	-12.8874	235.014	-31.062	-11.0771	227.569	-29.3268	15.3927	272.524	-4.17409	4.86841	282.26	-5.24754	-14.0233	290.773	-1.51245	-33.043	257.599	10.6905	37.462	253.522	7.22837	61.822	234.682	21.6256	44.7883	
7	0.0583333	205.523	7.56034	52.2389	194.457	12.8077	27.8786	190.253	20.2853	5.67384	185.798	25.952	-14.2208	217.4	13.0903	-14.0012	209.222	-15.6569	-15.0616	206.704	-20.5986	14.5517	233.857	-2.89251	-13.7504	218.794	-27.1545	-7.14266	221.204	-18.4132	26.01	251.071	-10.9546	-12.74	234.915	-32.0469	-10.0053	225.326	-27.7462	14.7134	272.806	-4.65903	6.32102	278.882	-3.69894	-11.0379	291.079	-0.50667	-29.3758	258.552	12.2405	33.7046	255.123	6.6022	63.9744	233.36	22.2665	48.3049	
8	0.0666667	209.844	8.46835	48.5068	194.786	12.3093	28.5432	192.109	18.7338	7.91684	185.426	24.3075	-11.4568	219.306	11.5723	-13.5265	207.901	-13.947	-16.7015	206.6	-22.5537	10.0342	235.281	-1.69827	-13.1459	218.943	-27.635	-5.16853	217.919	-21.9932	21.6091	250.316	-6.21971	-10.1988	234.165	-28.0797	-12.3465	226.965	-27.4051	17.689	274.682	-4.93477	4.92625	278.682	-2.92333	-13.8009	290.159	-2.81693	-27.1923	262.868	9.29392	35.4637	259.091	4.73415	61.0325	237.108	19.3598	49.2622	
9	0.075	207.079	8.52311	53.5799	194.901	12.2321	28.2153	190.987	19.4582	8.37858	185.804	26.0578	-12.0471	221.623	12.2197	-13.0051	207.298	-9.5736	-17.8573	206.308	-20.1935	12.4424	231.674	-0.589861	-14.8221	218.299	-26.5131	-5.8654	216.412	-21.1655	22.3164	251.112	-6.36549	-9.94815	233.353	-26.5727	-12.3952	225.804	-26.5451	15.7388	276.559	-5.98488	5.2385	279.869	-3.03708	-12.552	287.45	2.06145	-28.423	257.348	8.73835	37.6204	259.137	4.20896	60.1266	239.897	20.0286	51.0339	
10	0.0833333	210.594	9.10828	51.2438	194.242	14.667	27.1905	188.677	20.2536	6.50492	186.788	25.2431	-13.3903	220.545	16.0632	-10.2309	206.741	-11.9862	-15.4253	208.476	-22.3648	10.0749	234.341	-1.21297	-13.2645	221.853	-26.5639	-9.07198	219.396	-20.8719	22.6589	251.202	-8.62617	-12.4502	234.094	-27.797	-11.6977	226.719	-26.8322	16.0622	276.941	-6.26641	5.0086	279.717	-2.45768	-12.4882	289.307	2.63304	-31.4245	258.008	9.10726	39.5507	258.521	5.68086	64.6542	238.17	18.6683	50.9085	
11	0.0916667	208.153	7.05498	54.3364	198.983	11.6246	29.0599	191.665	21.3377	3.81554	185.79	26.5821	-14.9369	218.517	14.6992	-11.7337	209.671	-12.5432	-15.8348	207.948	-20.0995	13.1561	233.716	2.62498	-11.3684	220.488	-26.2034	-7.44217	216.946	-19.1027	23.3507	251.478	-6.94263	-12.0683	235.724	-27.9398	-11.2027	227.607	-24.4646	17.3364	274.322	-1.52911	1.52655	282.135	-1.48853	-15.0539	290.153	0.810155	-30.3835	260.877	10.2813	34.7555	257.92	5.95259	62.7926	235.106	21.894	47.0779	
12	0.1	206.363	9.06935	53.2437	197.963	12.5672	28.3766	191.825	18.9417	8.05781	186.44	25.6594	-10.7646	217.815	14.829	-14.244	210.494	-12.0272	-15.798	204.944	-19.4846	9.78115	231.779	0.206871	-14.7341	222.32	-26.4142	-4.35618	220.963	-18.3568	23.6765	249.985	-6.19385	-12.7886	235.255	-29.4467	-8.60826	226.5	-23.533	17.2124	276.886	-1.39717	2.36354	280.027	0.300576	-14.1589	287.406	3.67157	-31.1466	259.897	13.4892	36.5967	257.423	6.39112	61.7479	235.784	23.2424	51.1937	
13	0.108333	211.089	9.18792	50.7912	197.208	13.3701	27.4999	193.877	21.039	7.2537	186.044	25.6862	-9.45266	222.003	15.385	-11.164	212.109	-11.6766	-16.1742	207.973	-18.4095	14.9636	238.186	1.47903	-11.987	223.258	-24.8342	-7.9139	222.515	-16.1688	25.7983	252.159	-7.75309	-13.3792	233.167	-23.6908	-10.6894	228.263	-26.2124	14.9983	277.319	-2.49101	5.51367	281.962	-0.279242	-15.5623	285.644	4.68271	-28.9142	259.162	12.4094	39.126	258.31	7.66932	60.8071	235.482	24.0622	51.2579	
14	0.116667	209.296	10.1997	50.8398	193.679	13.9908	29.3638	192.5	21.753	7.51804	186.11	29.7773	-13.4957	219.236	15.5794	-14.391	212.021	-12.0043	-14.2061	206.844	-17.7335	12.5599	233.395	3.16893	-12.3136	224.123	-23.5955	-8.39948	221.356	-15.8781	24.7732	253.433	-6.00389	-11.8792	233.688	-26.6839	-8.4431	228.77	-22.0912	18.7629	275.83	-0.721557	5.01985	283.716	0.0706648	-11.1644	289.161	6.30545	-31.6844	262.305	11.8136	37.6619	256.777	9.09455	63.1015	236.152	23.5623	47.3388	
15	0.125	207.853	11.8591	50.9361	196.02	13.6549	28.6398	190.702	21.5008	7.89962	186.225	26.977	-10.1189	218.756	17.063	-13.475	209.577	-10.539	-14.0447	206.014	-17.493	12.9459	233.977	2.19567	-13.4547	219.807	-21.9126	-5.64369	219.03	-16.3579	23.4522	249.707	-1.92173	-12.7161	238.98	-25.7806	-11.7465	230.661	-23.8517	18.0274	277.135	1.74909	4.82875	283.246	2.7106	-11.7737	289.11	8.76645	-29.9776	263.75	13.6704	39.2259	260.91	10.0257	61.4618	235.918	23.0877	50.9326	
16	0.133333	210.368	8.72244	51.4223	194.308	13.2318	27.8295	192.95	21.5077	5.03756	184.841	26.3969	-12.414	218.353	16.6258	-13.9022	209.608	-9.43246	-15.4976	211.398	-18.5403	14.2044	234.951	7.02585	-12.378	222.791	-20.5012	-8.6869	225.004	-18.0584	22.9368	252.332	2.41165	-8.98571	237.479	-22.9758	-9.90094	230.743	-21.0029	17.9557	277.249	4.645	7.48487	282.291	7.93481	-14.7302	289.039	13.6144	-31.3444	261.047	17.0688	40.1691	259.625	11.3996	65.2017	235.441	22.9991	51.901	
17	0.141667	206.704	9.76341	50.3786	196.767	11.7107	25.1926	187.888	17.4162	7.09445	182.379	22.6422	-9.55507	220.282	16.0945	-14.1802	214.212	-10.8403	-16.053	212.507	-18.5661	11.2003	236.518	4.2976	-13.3458	226.048	-22.3205	-5.94479	221.685	-15.7747	23.5036	250.743	3.48763	-11.747	240.194	-23.5235	-8.2171	231.527	-19.9063	15.448	276.052	10.7542	3.80544	283.143	12.0799	-14.1709	292.674	16.9836	-26.7004	260.709	19.5634	40.1092	257.504	13.1769	67.1083	230.466	24.7403	51.8026	
